<?xml version="1.0" encoding="UTF-8"?>
<!-- Generator: https://ezgif.com/png-to-svg -->
<svg version="1.1" xmlns="http://www.w3.org/2000/svg" width="160" height="160">
<path d="M0 0 C1.64 0.01 1.64 0.01 3.3 0.03 C21.92 0.42 39.86 6.74 53.75 19.44 C55.09 20.64 55.09 20.64 56.45 21.86 C70.56 35.18 80.34 53.89 81.18 73.52 C81.21 75.57 81.21 77.63 81.19 79.69 C81.18 80.78 81.17 81.87 81.16 82.99 C80.76 101.61 74.45 119.55 61.75 133.44 C60.95 134.33 60.15 135.22 59.32 136.14 C46.01 150.25 27.3 160.03 7.67 160.87 C5.61 160.89 3.56 160.9 1.5 160.88 C0.41 160.87 -0.68 160.86 -1.8 160.85 C-20.42 160.45 -38.36 154.14 -52.25 141.44 C-53.14 140.64 -54.03 139.84 -54.95 139.01 C-69.06 125.69 -78.84 106.99 -79.68 87.36 C-79.71 85.3 -79.71 83.24 -79.69 81.19 C-79.68 80.1 -79.67 79.01 -79.66 77.88 C-79.26 59.27 -72.95 41.33 -60.25 27.44 C-59.45 26.55 -58.65 25.65 -57.82 24.73 C-42.65 8.66 -22.09 -0.22 0 0 Z " fill="#FEFEFE" transform="translate(79.25,-0.4375)"/>
<path d="M0 0 C2.72 1.57 4.95 2.05 8.06 1.72 C11.27 2.03 12.67 3.34 15.01 5.48 C16.85 7.12 18.8 8.53 20.81 9.97 C25.56 13.51 30.05 17.88 30.99 23.98 C31.06 25.03 31.06 25.03 31.12 26.1 C31.43 29.56 32.12 32.5 33.25 35.79 C36.4 45.86 34.87 54.47 30.68 63.97 C30.35 63.97 30.02 63.97 29.68 63.97 C29.67 63.15 29.66 62.33 29.64 61.48 C29.14 49.67 25.39 41.05 16.68 32.97 C13.1 30.17 9.42 27.56 5.68 24.97 C5.35 24.64 5.02 24.31 4.68 23.97 C2.66 23.9 0.64 23.89 -1.38 23.91 C-2.48 23.92 -3.59 23.93 -4.73 23.94 C-6.01 23.95 -6.01 23.95 -7.32 23.97 C-7.81 25.46 -7.81 25.46 -8.32 26.97 C-10.28 28.47 -10.28 28.47 -12.69 29.97 C-18.21 33.42 -20.48 35.6 -22.32 41.97 C-19.35 42.63 -16.38 43.29 -13.32 43.97 C-12.82 45.95 -12.82 45.95 -12.32 47.97 C-17.27 47.31 -22.22 46.65 -27.32 45.97 C-27.65 47.95 -27.98 49.93 -28.32 51.97 C-27.14 51.85 -25.97 51.73 -24.75 51.6 C-20.04 51.55 -17.86 53.49 -14.57 56.66 C-14.15 57.09 -13.74 57.53 -13.32 57.97 C-13.65 58.96 -13.98 59.95 -14.32 60.97 C-14.98 59.98 -15.64 58.99 -16.32 57.97 C-16.61 59.09 -16.89 60.2 -17.19 61.35 C-18.32 64.97 -18.32 64.97 -20.32 66.97 C-22.64 67.37 -24.97 67.71 -27.32 67.97 C-27.32 68.63 -27.32 69.29 -27.32 69.97 C-27.98 69.97 -28.64 69.97 -29.32 69.97 C-29.87 75.15 -29.87 75.15 -28 79.66 C-27.45 80.09 -26.89 80.53 -26.32 80.97 C-25.88 81.74 -25.45 82.5 -25 83.29 C-22.29 87.6 -19.22 91.34 -14.32 92.97 C-14.32 93.63 -14.32 94.29 -14.32 94.97 C-12.11 95.03 -9.9 95.07 -7.69 95.1 C-6.46 95.12 -5.23 95.14 -3.96 95.17 C-0.35 94.97 2.33 94.27 5.68 92.97 C6.47 92.73 7.25 92.48 8.06 92.22 C14.11 89.34 18.63 85.27 22.68 79.97 C23.34 79.97 24 79.97 24.68 79.97 C24.35 86.24 24.02 92.51 23.68 98.97 C6.68 99.12 6.68 99.12 -1.32 97.97 C-1.32 99.95 -1.32 101.93 -1.32 103.97 C-2.97 103.64 -4.62 103.31 -6.32 102.97 C-6.32 102.31 -6.32 101.65 -6.32 100.97 C-10.94 99.93 -15.6 99.46 -20.32 98.97 C-20.65 97.65 -20.98 96.33 -21.32 94.97 C-26.27 94.97 -31.22 94.97 -36.32 94.97 C-36.32 95.63 -36.32 96.29 -36.32 96.97 C-43.77 96.61 -50.37 95.76 -57.32 92.97 C-61.77 33.63 -61.77 33.63 -41.5 10.04 C-31.16 -0.75 -14.14 -8.78 0 0 Z " fill="#483631" transform="translate(90.31640625,13.02734375)"/>
<path d="M0 0 C0.75 -0.04 1.5 -0.07 2.27 -0.11 C5.55 0.48 7.15 2.14 9.62 4.31 C10.42 4.89 11.21 5.47 12.02 6.07 C20.22 12.2 28.41 20.44 30.04 30.99 C30.14 32.29 30.14 32.29 30.25 33.62 C30.32 34.51 30.4 35.39 30.48 36.3 C30.53 36.96 30.57 37.63 30.62 38.31 C31.62 38.31 32.6 38.31 33.62 38.31 C36.38 40.25 36.38 40.25 38.62 43.31 C39.08 46.57 38.75 49.23 37.62 52.31 C33.65 56.29 29.96 56.77 24.58 56.84 C23.93 57 23.29 57.15 22.62 57.31 C21.54 59.15 21.54 59.15 20.62 61.31 C14.61 67.49 9.29 71.31 0.62 72.31 C0.3 72.64 -0.03 72.97 -0.38 73.31 C-2.35 73.41 -4.33 73.44 -6.31 73.44 C-7.93 73.44 -7.93 73.44 -9.59 73.45 C-12.38 73.31 -12.38 73.31 -14.38 72.31 C-14.38 71.65 -14.38 70.99 -14.38 70.31 C-14.95 70.22 -15.53 70.14 -16.12 70.05 C-21.92 68.16 -26.67 61.56 -29.38 56.31 C-29.7 55.98 -30.03 55.65 -30.38 55.31 C-30.2 52.62 -29.76 49.98 -29.38 47.31 C-28.72 47.31 -28.05 47.31 -27.38 47.31 C-27.38 46.65 -27.38 45.99 -27.38 45.31 C-26.81 45.11 -26.24 44.9 -25.66 44.69 C-24.93 44.42 -24.19 44.15 -23.44 43.88 C-22.71 43.61 -21.98 43.34 -21.22 43.07 C-19.39 42.46 -19.39 42.46 -18.38 41.31 C-18.01 38.98 -17.67 36.65 -17.38 34.31 C-16.39 34.64 -15.39 34.97 -14.38 35.31 C-19.05 30.75 -21.86 29.65 -28.38 29.31 C-28.05 27.33 -27.72 25.35 -27.38 23.31 C-16.82 22.94 -16.82 22.94 -12.38 25.31 C-12.7 24.32 -13.03 23.33 -13.38 22.31 C-15.47 21.29 -15.47 21.29 -17.94 20.62 C-18.76 20.37 -19.59 20.12 -20.44 19.86 C-21.08 19.68 -21.72 19.5 -22.38 19.31 C-22.46 15.78 -21.83 13.81 -19.45 11.2 C-13.52 5.88 -13.52 5.88 -10.14 4.2 C-8.19 3.44 -8.19 3.44 -7.38 1.31 C-4.67 0.41 -2.8 0.09 0 0 Z " fill="#F9D4CA" transform="translate(90.375,35.6875)"/>
<path d="M0 0 C2.54 0.26 5.08 0.53 7.62 0.81 C8.69 0.92 8.69 0.92 9.79 1.03 C15.5 1.68 20.05 2.84 24.05 7.27 C24.61 8.11 25.17 8.95 25.75 9.81 C26.32 10.64 26.89 11.48 27.48 12.33 C29.09 15.15 30.08 17.9 31 21 C10.92 33.47 -11.12 38.87 -34.76 33.92 C-42.21 32.05 -53.41 28.59 -59 23 C-58.82 17.56 -58.33 14.69 -54.6 10.46 C-51.71 7.82 -48.34 6.26 -44.81 4.62 C-44.09 4.27 -43.36 3.92 -42.62 3.55 C-37.33 1 -37.33 1 -35 1 C-34.78 1.52 -34.56 2.04 -34.34 2.57 C-31.51 8.79 -28.58 12.25 -22.31 15.31 C-14.75 16.88 -7.78 16.9 -1 13 C1.45 9.32 1.23 7.35 1 3 C0.5 1.52 0.5 1.52 0 0 Z " fill="#1F2022" transform="translate(96,125)"/>
<path d="M0 0 C2.07 1.08 2.07 1.08 3.82 2.17 C6.54 3.74 8.77 4.22 11.88 3.89 C15.1 4.2 16.49 5.51 18.83 7.65 C20.68 9.29 22.62 10.7 24.63 12.14 C29.39 15.68 33.88 20.04 34.82 26.15 C34.86 26.85 34.9 27.55 34.95 28.27 C35.25 31.73 35.94 34.67 37.07 37.95 C40.22 48.03 38.7 56.64 34.51 66.14 C34.18 66.14 33.85 66.14 33.51 66.14 C33.49 65.32 33.48 64.5 33.46 63.65 C32.96 51.84 29.22 43.22 20.51 35.14 C16.93 32.34 13.24 29.73 9.51 27.14 C9.18 26.81 8.85 26.48 8.51 26.14 C3.08 25.52 -1.43 26.16 -6.43 28.27 C-8.75 29.25 -11.1 30.04 -13.49 30.83 C-14.26 31.08 -15.02 31.33 -15.8 31.59 C-16.36 31.77 -16.92 31.95 -17.49 32.14 C-18.1 30.33 -18.1 30.33 -18.49 28.14 C-13.73 19.8 -13.73 19.8 -9.01 18.41 C-8.12 18.26 -7.23 18.11 -6.3 17.95 C-5.4 17.79 -4.5 17.64 -3.57 17.47 C-2.54 17.31 -2.54 17.31 -1.49 17.14 C-1.49 16.48 -1.49 15.82 -1.49 15.14 C-2.67 14.77 -2.67 14.77 -3.87 14.39 C-6.88 12.95 -7.21 12.09 -8.49 9.14 C-14.9 8.93 -20.42 8.98 -26.49 11.14 C-25.49 8.14 -25.49 8.14 -22.49 6.14 C-22.49 5.48 -22.49 4.82 -22.49 4.14 C-16.95 -2.17 -7.79 -2.69 0 0 Z " fill="#42302D" transform="translate(86.4921875,10.859375)"/>
<path d="M0 0 C6.33 5.43 9.97 12.3 10.81 20.62 C10.9 22.08 10.97 23.54 11 25 C11.99 25 12.98 25 14 25 C16.75 26.94 16.75 26.94 19 30 C19.46 33.25 19.12 35.92 18 39 C14.03 42.97 10.33 43.46 4.95 43.53 C4.31 43.69 3.66 43.84 3 44 C1.92 45.84 1.92 45.84 1 48 C-5.02 54.18 -10.33 58 -19 59 C-19.33 59.33 -19.66 59.66 -20 60 C-21.98 60.1 -23.96 60.13 -25.94 60.12 C-27.56 60.13 -27.56 60.13 -29.21 60.13 C-32 60 -32 60 -34 59 C-34 58.34 -34 57.68 -34 57 C-34.58 56.91 -35.15 56.82 -35.75 56.73 C-41.55 54.84 -46.3 48.24 -49 43 C-49.33 42.67 -49.66 42.34 -50 42 C-49.82 39.31 -49.38 36.67 -49 34 C-48.34 34 -47.68 34 -47 34 C-47 33.34 -47 32.68 -47 32 C-44.36 31.34 -41.72 30.68 -39 30 C-40.62 36.75 -40.62 36.75 -44 39 C-42.57 46.46 -38.53 51.16 -32.75 55.81 C-28.83 57.5 -25.21 57.25 -21 57 C-21 56.01 -21 55.02 -21 54 C-22.36 53.85 -22.36 53.85 -23.75 53.69 C-27.08 52.98 -28.62 52.38 -31 50 C-31.75 47.81 -31.75 47.81 -32 46 C-27.54 44.81 -23.36 45.11 -18.81 45.5 C-13.77 46.18 -13.77 46.18 -9 45 C-9.7 40.28 -10.8 35.72 -12.06 31.12 C-12.25 30.44 -12.44 29.75 -12.63 29.04 C-13.08 27.36 -13.54 25.68 -14 24 C-9.76 19.76 -6.93 18.41 -0.95 17.95 C1 18 1 18 3 19 C3.33 17.35 3.66 15.7 4 14 C0.58 12.86 -2.09 12.9 -5.69 12.94 C-6.87 12.95 -8.05 12.96 -9.26 12.96 C-10.17 12.98 -11.07 12.99 -12 13 C-11.32 11.08 -11.32 11.08 -10 9 C-7.62 8.17 -7.62 8.17 -4.88 7.75 C-3.51 7.53 -3.51 7.53 -2.12 7.3 C-1.42 7.2 -0.72 7.1 0 7 C0 4.69 0 2.38 0 0 Z " fill="#E5B8AD" transform="translate(110,49)"/>
<path d="M0 0 C0.33 0 0.66 0 1 0 C1.33 1.65 1.66 3.3 2 5 C3.22 5.12 4.43 5.25 5.69 5.38 C9.06 5.79 11.9 6.55 15 8 C15 8.66 15 9.32 15 10 C16.32 10 17.64 10 19 10 C19.33 8.35 19.66 6.7 20 5 C20.33 5 20.66 5 21 5 C21.2 6.05 21.2 6.05 21.4 7.12 C21.58 8.03 21.76 8.94 21.94 9.88 C22.11 10.78 22.29 11.68 22.46 12.62 C22.9 15 22.9 15 24 17 C24.99 17.33 25.98 17.66 27 18 C29.53 21.46 29.44 24.85 29 29 C27.16 32.18 25.71 33.64 22.44 35.31 C14.96 36.81 6.67 37.23 0 33 C-4.48 28.99 -7.66 24.97 -9 19 C-8.07 18.59 -7.14 18.17 -6.19 17.75 C-2.64 15.47 -2.1 12.74 -1.12 8.75 C-0.73 6.84 -0.34 4.92 0 3 C-2.97 3 -5.94 3 -9 3 C-9 2.67 -9 2.34 -9 2 C-6.03 2 -3.06 2 0 2 C0 1.34 0 0.68 0 0 Z " fill="#F8D1C6" transform="translate(69,106)"/>
<path d="M0 0 C-0.06 1.05 -0.12 2.1 -0.19 3.19 C0.01 7.16 0.7 8.84 3 12 C2.34 12 1.68 12 1 12 C1 12.66 1 13.32 1 14 C0.34 14 -0.32 14 -1 14 C-1.56 19.18 -1.56 19.18 0.31 23.69 C1.15 24.34 1.15 24.34 2 25 C2.43 25.76 2.87 26.53 3.31 27.31 C6.02 31.63 9.09 35.36 14 37 C14 37.66 14 38.32 14 39 C16.21 39.05 18.42 39.09 20.62 39.12 C21.85 39.15 23.08 39.17 24.35 39.2 C27.96 39 30.64 38.3 34 37 C34.78 36.75 35.57 36.5 36.38 36.25 C42.43 33.37 46.95 29.3 51 24 C51.66 24 52.32 24 53 24 C52.67 30.27 52.34 36.54 52 43 C35 43.14 35 43.14 27 42 C27 43.98 27 45.96 27 48 C25.35 47.67 23.7 47.34 22 47 C22 46.34 22 45.68 22 45 C17.37 43.96 12.71 43.48 8 43 C8 41.02 8 39.04 8 37 C6.76 36.72 6.76 36.72 5.5 36.44 C0.9 34.55 -2.79 31.82 -6 28 C-6.9 24.53 -7.12 21.28 -7.1 17.7 C-7.09 16.72 -7.09 15.75 -7.09 14.74 C-7.08 13.73 -7.07 12.73 -7.06 11.69 C-7.06 10.66 -7.05 9.63 -7.05 8.58 C-7.04 6.05 -7.02 3.53 -7 1 C-4.51 0.31 -2.62 0 0 0 Z " fill="#D0A59A" transform="translate(62,69)"/>
<path d="M0 0 C0.99 1.32 1.98 2.64 3 4 C2.4 4.38 1.79 4.76 1.17 5.15 C-6.89 11.09 -7.99 17.65 -9.61 26.99 C-10.2 30.05 -11.12 33.01 -12 36 C-12.57 38.37 -13.12 40.74 -13.62 43.12 C-13.89 44.3 -14.15 45.48 -14.41 46.7 C-16.12 56.83 -14.93 67.59 -14.5 77.81 C-14.45 78.99 -14.4 80.18 -14.36 81.39 C-14.24 84.26 -14.12 87.13 -14 90 C-16.31 89.34 -18.62 88.68 -21 88 C-25.42 29.05 -25.42 29.05 -7.33 7.75 C-4.97 5.09 -2.51 2.52 0 0 Z " fill="#544846" transform="translate(54,18)"/>
<path d="M0 0 C6.33 5.43 9.97 12.3 10.81 20.62 C10.9 22.08 10.97 23.54 11 25 C11.99 25 12.98 25 14 25 C16.75 26.94 16.75 26.94 19 30 C19.46 33.25 19.13 35.92 18 39 C14.65 42.27 12.79 42.95 8.12 43.25 C7.09 43.17 6.06 43.09 5 43 C5.22 42.35 5.43 41.69 5.66 41.02 C7.84 33.86 8.35 27.46 8 20 C7.55 20.83 7.09 21.65 6.62 22.5 C6.09 23.33 5.55 24.15 5 25 C4.34 25 3.68 25 3 25 C2.67 25.66 2.34 26.32 2 27 C1.67 25.68 1.34 24.36 1 23 C0.34 23 -0.32 23 -1 23 C-0.94 24.09 -0.88 25.19 -0.81 26.31 C-1 30 -1 30 -2.12 31.94 C-4.92 33.52 -6.85 33.46 -10 33 C-12.83 30.37 -13.48 27.76 -14 24 C-9.76 19.76 -6.93 18.41 -0.95 17.95 C1 18 1 18 3 19 C3.33 17.35 3.66 15.7 4 14 C0.58 12.86 -2.09 12.9 -5.69 12.94 C-6.87 12.95 -8.05 12.96 -9.26 12.96 C-10.62 12.98 -10.62 12.98 -12 13 C-11.32 11.08 -11.32 11.08 -10 9 C-7.62 8.17 -7.62 8.17 -4.88 7.75 C-3.51 7.53 -3.51 7.53 -2.12 7.3 C-1.42 7.2 -0.72 7.1 0 7 C0 4.69 0 2.38 0 0 Z " fill="#D4AA9F" transform="translate(110,49)"/>
<path d="M0 0 C1.94 1 1.94 1 4 3 C4.74 5.74 4.86 8.14 5 11 C2.96 13.04 -0.89 12.87 -3.65 13.3 C-6.35 13.83 -6.35 13.83 -8 17 C-7.01 16.75 -7.01 16.75 -6 16.5 C-0.91 15.65 3.55 15.03 8 18 C8.19 21.12 8.19 21.12 8 24 C7.42 23.89 6.84 23.79 6.24 23.68 C0.9 22.86 -2.34 22.82 -7 26 C-9.37 28.85 -9.37 28.85 -8.62 32.19 C-8.32 33.58 -8.32 33.58 -8 35 C-10.31 34.34 -12.62 33.68 -15 33 C-15.63 21.98 -15.63 21.98 -13.06 18 C-12.38 17.34 -11.7 16.68 -11 16 C-10.88 15.3 -10.75 14.6 -10.62 13.88 C-10 12 -10 12 -7.12 10.25 C-4 9 -4 9 -1 9 C-0.67 6.03 -0.34 3.06 0 0 Z " fill="#EAC4B9" transform="translate(106,45)"/>
<path d="M0 0 C0.33 0 0.66 0 1 0 C1.33 1.65 1.66 3.3 2 5 C3.22 5.12 4.43 5.25 5.69 5.38 C9.06 5.79 11.9 6.55 15 8 C15 8.66 15 9.32 15 10 C16.32 10 17.64 10 19 10 C19.33 8.35 19.66 6.7 20 5 C20.33 5 20.66 5 21 5 C21.2 6.05 21.2 6.05 21.4 7.12 C21.58 8.03 21.76 8.94 21.94 9.88 C22.11 10.78 22.29 11.68 22.46 12.62 C22.9 15 22.9 15 24 17 C24.99 17.33 25.98 17.66 27 18 C29.52 21.45 29.16 24.87 29 29 C28.67 29 28.34 29 28 29 C28 27.02 28 25.04 28 23 C27.09 22.73 26.19 22.46 25.25 22.19 C22.26 21.09 20.28 20.2 18 18 C18 17.01 18 16.02 18 15 C13.38 14.34 8.76 13.68 4 13 C3.34 14.32 2.68 15.64 2 17 C0.34 18.38 0.34 18.38 -1.5 19.56 C-4.19 21.3 -5.14 22.21 -7 25 C-7.66 23.02 -8.32 21.04 -9 19 C-8.07 18.59 -7.14 18.17 -6.19 17.75 C-2.64 15.47 -2.1 12.74 -1.12 8.75 C-0.73 6.84 -0.34 4.92 0 3 C-2.97 3 -5.94 3 -9 3 C-9 2.67 -9 2.34 -9 2 C-6.03 2 -3.06 2 0 2 C0 1.34 0 0.68 0 0 Z " fill="#CC998A" transform="translate(69,106)"/>
<path d="M0 0 C0.99 1.32 1.98 2.64 3 4 C2.4 4.5 1.79 4.99 1.17 5.5 C-6.45 11.98 -9.68 17.45 -12.85 26.82 C-14 30 -14 30 -15.59 33.46 C-20.89 45.25 -20.62 56.25 -20 69 C-19.92 70.97 -19.84 72.95 -19.75 74.92 C-19.55 79.62 -19.29 84.31 -19 89 C-19.66 88.67 -20.32 88.34 -21 88 C-25.42 29.05 -25.42 29.05 -7.33 7.75 C-4.97 5.09 -2.51 2.52 0 0 Z " fill="#B4B8BB" transform="translate(54,18)"/>
<path d="M0 0 C0.57 0.22 1.14 0.45 1.72 0.68 C1.04 1.15 0.35 1.62 -0.36 2.1 C-1.71 3.04 -1.71 3.04 -3.09 3.99 C-3.98 4.6 -4.88 5.22 -5.8 5.85 C-10.24 9.12 -11.73 11.31 -13.28 16.68 C-8.82 17.67 -8.82 17.67 -4.28 18.68 C-3.95 20 -3.62 21.32 -3.28 22.68 C-10.7 21.69 -10.7 21.69 -18.28 20.68 C-18.94 22.99 -19.6 25.3 -20.28 27.68 C-21.93 28.01 -23.58 28.34 -25.28 28.68 C-24.53 23.93 -24.53 23.93 -22.28 21.68 C-22.94 21.35 -23.6 21.02 -24.28 20.68 C-23.9 18.74 -23.9 18.74 -23.28 16.68 C-22.62 16.35 -21.96 16.02 -21.28 15.68 C-21.15 14.89 -21.03 14.11 -20.9 13.3 C-20.28 10.68 -20.28 10.68 -18.53 8.99 C-16.28 7.68 -16.28 7.68 -13.92 6.79 C-10.37 5.29 -7.54 3.1 -4.46 0.82 C-2.28 -0.32 -2.28 -0.32 0 0 Z " fill="#4D2E29" transform="translate(81.27734375,38.32421875)"/>
<path d="M0 0 C1.58 -0.05 3.17 -0.09 4.75 -0.12 C6.07 -0.16 6.07 -0.16 7.42 -0.2 C10.2 0.02 11.71 0.42 14 2 C14.67 3.33 15.33 4.67 16 6 C17.93 7.32 17.93 7.32 20.12 8.25 C20.85 8.59 21.57 8.92 22.32 9.27 C23.15 9.63 23.15 9.63 24 10 C24 12.31 24 14.62 24 17 C23.67 17 23.34 17 23 17 C23 15.02 23 13.04 23 11 C21.97 10.88 20.94 10.75 19.88 10.62 C16 10 16 10 13 8.94 C6.54 6.92 1.91 8.13 -4.08 10.73 C-6.34 12.22 -7.02 13.52 -8 16 C-10 13 -10 13 -10.12 10.69 C-8.57 6.98 -6.08 5.54 -2.81 3.33 C-0.87 2.11 -0.87 2.11 0 0 Z " fill="#E9BBAD" transform="translate(73,119)"/>
<path d="M0 0 C0.66 0.33 1.32 0.66 2 1 C1.67 1.99 1.34 2.98 1 4 C0.34 4 -0.32 4 -1 4 C-1 4.66 -1 5.32 -1 6 C-2.13 6.12 -3.27 6.25 -4.44 6.38 C-6.2 6.68 -6.2 6.68 -8 7 C-8.33 7.66 -8.66 8.32 -9 9 C-9.66 9 -10.32 9 -11 9 C-11.66 10.32 -12.32 11.64 -13 13 C-14.65 12.67 -16.3 12.34 -18 12 C-17.81 13.24 -17.63 14.47 -17.44 15.75 C-17.05 18.76 -16.91 21.1 -18 24 C-19.32 23.34 -20.64 22.68 -22 22 C-21.68 15.84 -20.7 12.3 -16 8 C-13.38 6.26 -10.65 4.9 -7.81 3.56 C-7.09 3.2 -6.36 2.84 -5.62 2.46 C-3.78 1.57 -1.89 0.78 0 0 Z M-14 13 C-13.67 13.66 -13.34 14.32 -13 15 C-12.01 14.67 -11.02 14.34 -10 14 C-9.34 15.32 -8.68 16.64 -8 18 C-7.67 17.34 -7.34 16.68 -7 16 C-6.34 16 -5.68 16 -5 16 C-4.67 17.32 -4.34 18.64 -4 20 C-3.34 19.67 -2.68 19.34 -2 19 C-1.67 19.99 -1.34 20.98 -1 22 C-5.75 23.12 -5.75 23.12 -8 22 C-10.61 22.89 -10.61 22.89 -13 24 C-13 23.34 -13 22.68 -13 22 C-13.66 22 -14.32 22 -15 22 C-15.62 20.12 -15.62 20.12 -16 18 C-15.34 17.34 -14.68 16.68 -14 16 C-14 15.01 -14 14.02 -14 13 Z " fill="#1C1F21" transform="translate(59,126)"/>
<path d="M0 0 C2.29 1.13 3.98 2.39 6 4 C5.67 4.66 5.34 5.32 5 6 C4.34 6 3.68 6 3 6 C2.67 6.66 2.34 7.32 2 8 C1.67 6.68 1.34 5.36 1 4 C0.34 4 -0.32 4 -1 4 C-0.94 5.09 -0.88 6.19 -0.81 7.31 C-1 11 -1 11 -2.12 12.94 C-4.92 14.52 -6.85 14.46 -10 14 C-12.83 11.37 -13.48 8.76 -14 5 C-9.57 0.57 -6.33 -1.42 0 0 Z " fill="#47322F" transform="translate(110,68)"/>
<path d="M0 0 C0.66 0 1.32 0 2 0 C1.34 5.94 0.68 11.88 0 18 C-0.99 18 -1.98 18 -3 18 C-3 17.34 -3 16.68 -3 16 C-4.21 16.25 -4.21 16.25 -5.44 16.5 C-9.66 17.09 -13.75 17.09 -18 17 C-16.71 13.13 -15.29 12.76 -11.81 10.75 C-6.78 7.68 -3.64 4.58 0 0 Z " fill="#31201D" transform="translate(113,93)"/>
<path d="M0 0 C0.54 0.72 1.07 1.44 1.62 2.19 C5.72 7.04 9.68 10.69 16 12 C21.48 12.31 26.63 12.21 32 11 C32 11.66 32 12.32 32 13 C30.68 13.33 29.36 13.66 28 14 C28 14.99 28 15.98 28 17 C27 19.19 27 19.19 26 21 C24.68 20.67 23.36 20.34 22 20 C22 18.35 22 16.7 22 15 C16.56 14.5 16.56 14.5 11 14 C10.67 15.98 10.34 17.96 10 20 C9.34 20 8.68 20 8 20 C8 19.34 8 18.68 8 18 C7.34 17.67 6.68 17.34 6 17 C6 16.01 6 15.02 6 14 C5.34 14.66 4.68 15.32 4 16 C3.67 14.35 3.34 12.7 3 11 C3.66 10.67 4.32 10.34 5 10 C4.01 9.67 3.02 9.34 2 9 C0.29 5.68 0 3.82 0 0 Z " fill="#302D2E" transform="translate(61,129)"/>
<path d="M0 0 C3.26 1.8 4.89 2.83 7 6 C7.28 9.14 6.94 11.99 6 15 C3.19 17.62 3.19 17.62 0 19 C-2.38 18.75 -2.38 18.75 -4 18 C-3.42 11.7 -1.96 6.01 0 0 Z " fill="#E9C1B5" transform="translate(122,73)"/>
<path d="M0 0 C0.33 0 0.66 0 1 0 C1 4.29 1 8.58 1 13 C-15.71 13.18 -15.71 13.18 -24 12 C-24 13.98 -24 15.96 -24 18 C-25.65 17.67 -27.3 17.34 -29 17 C-29 16.34 -29 15.68 -29 15 C-33.63 13.96 -38.29 13.48 -43 13 C-43 11.35 -43 9.7 -43 8 C-42.24 8.23 -41.48 8.46 -40.69 8.69 C-32.36 11.01 -26.28 11.14 -18 9 C-18 9.66 -18 10.32 -18 11 C-13.05 10.67 -8.1 10.34 -3 10 C-3 10.66 -3 11.32 -3 12 C-2.01 12 -1.02 12 0 12 C0 8.04 0 4.08 0 0 Z " fill="#C37E6D" transform="translate(113,99)"/>
<path d="M0 0 C0.93 3.01 1.04 3.87 0 7 C-0.11 8.58 -0.18 10.16 -0.21 11.75 C-0.23 12.71 -0.25 13.67 -0.27 14.66 C-0.28 15.69 -0.3 16.73 -0.32 17.79 C-0.34 18.85 -0.36 19.92 -0.38 21.01 C-0.44 24.4 -0.5 27.79 -0.56 31.19 C-0.61 33.49 -0.65 35.79 -0.69 38.08 C-0.8 43.72 -0.9 49.36 -1 55 C-3.34 51.48 -3.45 48.83 -3.62 44.75 C-3.68 43.65 -3.68 43.65 -3.73 42.52 C-3.84 40.02 -3.92 37.51 -4 35 C-4.03 34.06 -4.07 33.12 -4.1 32.14 C-4.82 10.01 -4.82 10.01 0 0 Z " fill="#777374" transform="translate(37,52)"/>
<path d="M0 0 C0.08 1.62 0.14 3.25 0.19 4.88 C0.22 5.78 0.26 6.68 0.29 7.62 C0.2 8.4 0.1 9.19 0 10 C-0.99 10.66 -1.98 11.32 -3 12 C-3.37 15.36 -3.37 15.36 -3.19 19.12 C-3.16 20.41 -3.13 21.69 -3.11 23.01 C-3.07 24 -3.04 24.98 -3 26 C-3.66 26 -4.32 26 -5 26 C-5.33 26.66 -5.66 27.32 -6 28 C-6.8 24.5 -7.12 21.29 -7.1 17.7 C-7.09 16.72 -7.09 15.75 -7.09 14.74 C-7.08 13.73 -7.07 12.73 -7.06 11.69 C-7.06 10.66 -7.05 9.63 -7.05 8.58 C-7.04 6.05 -7.02 3.53 -7 1 C-4.51 0.31 -2.62 0 0 0 Z " fill="#BB7F71" transform="translate(62,69)"/>
<path d="M0 0 C1.6 -0.05 3.21 -0.09 4.81 -0.12 C5.71 -0.15 6.6 -0.17 7.52 -0.2 C10 0 10 0 13 2 C11.35 2 9.7 2 8 2 C10.39 5.24 12.2 7.51 16 9 C16.12 14.75 16.12 14.75 15 17 C13.35 17 11.7 17 10 17 C10 15.02 10 13.04 10 11 C10.99 11.33 11.98 11.66 13 12 C8.33 7.44 5.52 6.34 -1 6 C-0.67 4.02 -0.34 2.04 0 0 Z " fill="#DFB6A9" transform="translate(63,59)"/>
<path d="M0 0 C0.19 3.12 0.19 3.12 0 6 C-0.58 5.89 -1.16 5.79 -1.76 5.68 C-7.08 4.86 -10.41 4.75 -15 8 C-16.28 9.98 -16.28 9.98 -17 12 C-17.66 12.66 -18.32 13.32 -19 14 C-19.49 8.71 -18.27 7.01 -15 3 C-15.13 0.74 -15.13 0.74 -16 -1 C-10.49 -2.38 -4.87 -3.24 0 0 Z " fill="#DAB1A5" transform="translate(114,63)"/>
<path d="M0 0 C0.99 1.32 1.98 2.64 3 4 C2.4 4.5 1.79 4.99 1.17 5.5 C-6.76 12.25 -9.8 17.86 -13.07 27.64 C-14 30 -14 30 -16 32 C-14.55 18.46 -10.29 9.33 0 0 Z " fill="#A8ABAE" transform="translate(54,18)"/>
<path d="M0 0 C0.68 0.7 1.36 1.4 2.06 2.12 C6.07 6.13 10.28 9.86 15 13 C15 13.66 15 14.32 15 15 C10.71 15 6.42 15 2 15 C0.58 12.17 0.65 9.53 0.44 6.38 C0.35 5.19 0.27 4 0.18 2.77 C0.12 1.86 0.06 0.94 0 0 Z " fill="#312321" transform="translate(52,92)"/>
<path d="M0 0 C1.5 1.14 2.99 2.29 4.38 3.55 C7.07 5.95 10.05 7.93 13 10 C10 11 10 11 8 11 C8 12.65 8 14.3 8 16 C7.34 15.67 6.68 15.34 6 15 C5.38 11.94 5.38 11.94 5 9 C4.34 9 3.68 9 3 9 C3 8.01 3 7.02 3 6 C1.02 6 -0.96 6 -3 6 C-3 5.34 -3 4.68 -3 4 C-3.99 4 -4.98 4 -6 4 C-6.33 3.01 -6.66 2.02 -7 1 C-4.34 -0.33 -2.97 -0.4 0 0 Z " fill="#423434" transform="translate(101,15)"/>
<path d="M0 0 C0.97 0.12 1.94 0.25 2.94 0.38 C5.09 3.61 5.41 4.63 4.94 8.38 C3.75 10.25 3.75 10.25 1.94 11.38 C-0.75 11.06 -0.75 11.06 -3.06 10.38 C-3.06 9.72 -3.06 9.06 -3.06 8.38 C-2.4 8.38 -1.74 8.38 -1.06 8.38 C-1.73 5.26 -1.73 5.26 -4.12 4.19 C-4.76 3.92 -5.4 3.65 -6.06 3.38 C-4.13 0.8 -3.27 0.4 0 0 Z " fill="#221716" transform="translate(103.0625,68.625)"/>
<path d="M0 0 C1.73 -0.03 3.46 -0.05 5.19 -0.06 C6.15 -0.07 7.11 -0.09 8.11 -0.1 C10.86 -0 13.32 0.38 16 1 C15.01 1.5 15.01 1.5 14 2 C12.87 4.02 12.87 4.02 12 6 C8.95 6.29 6.04 6.45 3 6 C0 2.45 0 2.45 0 0 Z " fill="#DC8777" transform="translate(78,95)"/>
<path d="M0 0 C0.9 0.31 0.9 0.31 1.81 0.62 C1.13 1.1 0.44 1.57 -0.27 2.05 C-1.62 2.98 -1.62 2.98 -3 3.94 C-3.89 4.55 -4.79 5.17 -5.71 5.8 C-10.15 9.07 -11.64 11.26 -13.19 16.62 C-12.53 16.95 -11.87 17.28 -11.19 17.62 C-13.83 17.62 -16.47 17.62 -19.19 17.62 C-18.66 13.65 -16.88 12.15 -13.88 9.62 C-11.53 7.64 -9.25 5.68 -7.08 3.5 C-3.02 -0.52 -3.02 -0.52 0 0 Z " fill="#BD8575" transform="translate(81.1875,38.375)"/>
<path d="M0 0 C0 0.66 0 1.32 0 2 C-1.96 3.71 -3.96 5.38 -6 7 C-6.66 6.67 -7.32 6.34 -8 6 C-7.81 7.24 -7.63 8.47 -7.44 9.75 C-7.05 12.76 -6.91 15.1 -8 18 C-9.32 17.34 -10.64 16.68 -12 16 C-11.66 9.5 -10.68 6.57 -6 2 C-3.74 0.58 -2.65 0 0 0 Z " fill="#3E4347" transform="translate(49,132)"/>
<path d="M0 0 C0.33 0 0.66 0 1 0 C1 4.29 1 8.58 1 13 C-15.89 13.18 -15.89 13.18 -23 12 C-22.67 11.34 -22.34 10.68 -22 10 C-19.94 9.38 -19.94 9.38 -18 9 C-18 9.66 -18 10.32 -18 11 C-13.05 10.67 -8.1 10.34 -3 10 C-3 10.66 -3 11.32 -3 12 C-2.01 12 -1.02 12 0 12 C0 8.04 0 4.08 0 0 Z " fill="#615857" transform="translate(113,99)"/>
<path d="M0 0 C0.33 0.66 0.66 1.32 1 2 C-0.32 2.33 -1.64 2.66 -3 3 C-3 3.99 -3 4.98 -3 6 C-4 8.19 -4 8.19 -5 10 C-6.32 9.67 -7.64 9.34 -9 9 C-9 7.35 -9 5.7 -9 4 C-11.64 3.67 -14.28 3.34 -17 3 C-17 2.34 -17 1.68 -17 1 C-16.11 1.01 -15.22 1.02 -14.3 1.04 C-12.54 1.05 -12.54 1.05 -10.75 1.06 C-9.01 1.08 -9.01 1.08 -7.23 1.1 C-4.59 1.02 -2.5 0.79 0 0 Z " fill="#3B3535" transform="translate(92,140)"/>
<path d="M0 0 C1.25 2.49 0.78 3.41 0 6 C-0.66 6 -1.32 6 -2 6 C-2 12.27 -2 18.54 -2 25 C-2.66 25.33 -3.32 25.66 -4 26 C-4 17.75 -4 9.5 -4 1 C-2.68 0.67 -1.36 0.34 0 0 Z " fill="#956157" transform="translate(59,69)"/>
<path d="M0 0 C5.77 -0.35 9.99 -0.3 15 3 C15.99 4.48 15.99 4.48 17 6 C16.15 5.67 15.3 5.35 14.43 5.01 C10.8 3.94 7.9 3.8 4.12 3.88 C2.97 3.89 1.82 3.91 0.63 3.93 C-0.24 3.95 -1.1 3.98 -2 4 C-1.34 2.68 -0.68 1.36 0 0 Z " fill="#684942" transform="translate(100,58)"/>
<path d="M0 0 C1.52 3.03 0.45 5.19 -0.31 8.44 C-0.71 10.17 -0.71 10.17 -1.11 11.93 C-2 15 -2 15 -4 18 C-4.66 18 -5.32 18 -6 18 C-6.66 19.32 -7.32 20.64 -8 22 C-7.38 17.01 -5.9 12.79 -4 8.19 C-3.73 7.51 -3.45 6.83 -3.17 6.13 C-1.15 1.15 -1.15 1.15 0 0 Z " fill="#615755" transform="translate(46,32)"/>
<path d="M0 0 C0.66 0.33 1.32 0.66 2 1 C0.62 2.5 0.62 2.5 -1 4 C-1.66 4 -2.32 4 -3 4 C-3 4.99 -3 5.98 -3 7 C0.47 6.5 0.47 6.5 4 6 C3.67 7.32 3.34 8.64 3 10 C0.67 10.04 -1.67 10.04 -4 10 C-5 9 -5 9 -5.38 6.69 C-5 4 -5 4 -2.5 1.69 C-1.26 0.85 -1.26 0.85 0 0 Z " fill="#1B100F" transform="translate(66,67)"/>
<path d="M0 0 C0.66 0 1.32 0 2 0 C3.76 3.33 4.11 4.59 3.12 8.31 C2.75 9.2 2.38 10.09 2 11 C1.34 11 0.68 11 0 11 C-0.33 11.66 -0.66 12.32 -1 13 C-2.98 12.34 -4.96 11.68 -7 11 C-6.38 10.71 -5.76 10.42 -5.12 10.12 C-2.87 9.06 -2.87 9.06 -1 7 C-0.6 4.68 -0.26 2.34 0 0 Z " fill="#B5B1B4" transform="translate(109,72)"/>
<path d="M0 0 C0 0.33 0 0.66 0 1 C-2.64 1 -5.28 1 -8 1 C-8.66 3.31 -9.32 5.62 -10 8 C-11.65 8.33 -13.3 8.66 -15 9 C-14.68 6.1 -14.11 4.18 -12.56 1.69 C-8.6 -0.92 -4.62 -0.32 0 0 Z " fill="#955E52" transform="translate(71,58)"/>
<path d="M0 0 C0.99 1.32 1.98 2.64 3 4 C1.55 5.34 0.09 6.67 -1.38 8 C-2.59 9.11 -2.59 9.11 -3.84 10.25 C-6 12 -6 12 -8 12 C-7.85 6.92 -4.98 4.64 -1.5 1.36 C-1 0.91 -0.51 0.46 0 0 Z " fill="#959598" transform="translate(54,18)"/>
<path d="M0 0 C3.28 2.79 5.01 6.23 7 10 C7 10.66 7 11.32 7 12 C5.35 12.33 3.7 12.66 2 13 C1.34 11.35 0.68 9.7 0 8 C0.66 8 1.32 8 2 8 C1.34 5.36 0.68 2.72 0 0 Z " fill="#2A2D30" transform="translate(120,134)"/>
<path d="M0 0 C1.21 0.01 1.21 0.01 2.45 0.03 C3.37 0.04 3.37 0.04 4.31 0.06 C4.64 0.72 4.97 1.38 5.31 2.06 C4.65 2.06 3.99 2.06 3.31 2.06 C2.98 2.72 2.65 3.38 2.31 4.06 C-1.32 4.06 -4.95 4.06 -8.69 4.06 C-8.36 3.07 -8.03 2.08 -7.69 1.06 C-4.81 0.1 -2.99 -0.04 0 0 Z " fill="#DDB4A8" transform="translate(90.6875,35.9375)"/>
<path d="M0 0 C0.99 0.33 1.98 0.66 3 1 C2.34 1 1.68 1 1 1 C1.04 1.66 1.08 2.31 1.12 2.99 C1.3 5.95 1.46 8.91 1.62 11.88 C1.69 12.91 1.75 13.94 1.82 15 C1.87 15.99 1.92 16.98 1.98 17.99 C2.03 18.9 2.08 19.81 2.14 20.75 C2 23 2 23 0 25 C-0.79 21.6 -1.08 18.62 -0.88 15.14 C-0.83 14.25 -0.78 13.36 -0.73 12.45 C-0.68 11.54 -0.62 10.63 -0.56 9.69 C-0.51 8.76 -0.46 7.82 -0.4 6.87 C-0.28 4.58 -0.14 2.29 0 0 Z " fill="#78453D" transform="translate(54,69)"/>
<path d="M0 0 C0.66 0.33 1.32 0.66 2 1 C1.17 1.7 0.35 2.4 -0.5 3.12 C-3.3 5.79 -3.3 5.79 -3.31 9.31 C-3.21 10.2 -3.11 11.09 -3 12 C-2.34 12.33 -1.68 12.66 -1 13 C-3.97 12.5 -3.97 12.5 -7 12 C-6.8 7.74 -5.92 5.57 -2.94 2.62 C-1.97 1.76 -1 0.89 0 0 Z " fill="#D9ADA0" transform="translate(75,43)"/>
<path d="M0 0 C4.33 4.33 4.12 10.71 4.12 16.5 C4.09 18.33 4.05 20.17 4 22 C3.67 22 3.34 22 3 22 C2.88 21.15 2.76 20.29 2.63 19.41 C2.38 17.75 2.38 17.75 2.12 16.06 C1.96 14.96 1.8 13.86 1.63 12.72 C1.42 11.82 1.22 10.93 1 10 C0.34 9.67 -0.32 9.34 -1 9 C-0.83 8.26 -0.67 7.52 -0.5 6.75 C0.12 3.81 0.12 3.81 0 0 Z " fill="#6B6768" transform="translate(121,44)"/>
<path d="M0 0 C0.66 0.33 1.32 0.66 2 1 C1.67 1.99 1.34 2.98 1 4 C0.34 4 -0.32 4 -1 4 C-1 4.66 -1 5.32 -1 6 C-3.97 6 -6.94 6 -10 6 C-6.88 3.48 -3.69 1.6 0 0 Z " fill="#414244" transform="translate(59,126)"/>
<path d="M0 0 C2 3 2 3 2 7 C-0.64 7 -3.28 7 -6 7 C-6 6.01 -6 5.02 -6 4 C-4.35 4 -2.7 4 -1 4 C-0.67 2.68 -0.34 1.36 0 0 Z " fill="#E5B7AB" transform="translate(89,83)"/>
<path d="M0 0 C2.97 0.33 5.94 0.66 9 1 C7.68 2.32 6.36 3.64 5 5 C5 4.34 5 3.68 5 3 C4.01 3 3.02 3 2 3 C1.67 5.31 1.34 7.62 1 10 C0.67 10 0.34 10 0 10 C0 6.7 0 3.4 0 0 Z " fill="#2B1C1A" transform="translate(52,66)"/>
<path d="M0 0 C1.12 3.75 1.12 3.75 0 6 C1.32 6.33 2.64 6.66 4 7 C1.36 7 -1.28 7 -4 7 C-3.44 3.73 -2.5 2.17 0 0 Z " fill="#8F5B4F" transform="translate(66,49)"/>
<path d="M0 0 C1.81 2 1.81 2 3 4 C0.03 4 -2.94 4 -6 4 C-6.33 3.01 -6.66 2.02 -7 1 C-4.43 -0.29 -2.85 -0.35 0 0 Z " fill="#6B6569" transform="translate(101,15)"/>
<path d="M0 0 C0.99 0.33 1.98 0.66 3 1 C2.55 2.46 2.09 3.92 1.62 5.38 C1.37 6.19 1.11 7 0.85 7.84 C0 10 0 10 -2 12 C-1 3.43 -1 3.43 0 0 Z " fill="#999B9C" transform="translate(40,38)"/>
<path d="M0 0 C0.99 0 1.98 0 3 0 C3.33 1.98 3.66 3.96 4 6 C2.35 6 0.7 6 -1 6 C-0.67 4.02 -0.34 2.04 0 0 Z " fill="#C79485" transform="translate(63,59)"/>
<path d="M0 0 C0.66 0 1.32 0 2 0 C2 3.3 2 6.6 2 10 C1.34 10 0.68 10 0 10 C-1.12 8.38 -1.12 8.38 -2 6 C-1.12 2.75 -1.12 2.75 0 0 Z " fill="#827E82" transform="translate(60,69)"/>
<path d="M0 0 C0.99 1.32 1.98 2.64 3 4 C1.02 5.32 -0.96 6.64 -3 8 C-3.37 3.45 -3.37 3.45 -1.5 1.19 C-1.01 0.8 -0.51 0.4 0 0 Z " fill="#736D6E" transform="translate(54,18)"/>
<path d="M0 0 C1.98 0.5 1.98 0.5 4 1 C3.67 2.32 3.34 3.64 3 5 C1.68 4.67 0.36 4.34 -1 4 C-0.67 2.68 -0.34 1.36 0 0 Z " fill="#8E9599" transform="translate(84,145)"/>
<path d="M0 0 C2.5 1.31 2.5 1.31 5 3 C5 3.99 5 4.98 5 6 C3.35 6 1.7 6 0 6 C0 4.02 0 2.04 0 0 Z " fill="#B3AEB1" transform="translate(73,70)"/>
<path d="M0 0 C0.54 0.25 1.07 0.49 1.62 0.75 C-3.79 4.81 -3.79 4.81 -6.75 4.5 C-7.29 4.25 -7.82 4.01 -8.38 3.75 C-2.96 -0.31 -2.96 -0.31 0 0 Z " fill="#A77064" transform="translate(81.375,38.25)"/>
<path d="M0 0 C1.65 0 3.3 0 5 0 C5.33 1.32 5.66 2.64 6 4 C4.35 4.33 2.7 4.66 1 5 C0.67 3.35 0.34 1.7 0 0 Z " fill="#776F6F" transform="translate(96,73)"/>
<path d="M0 0 C1.32 0.66 2.64 1.32 4 2 C3.01 2.99 2.02 3.98 1 5 C-0.98 4.34 -2.96 3.68 -5 3 C-4.36 2.69 -3.72 2.38 -3.06 2.06 C-1.06 1.17 -1.06 1.17 0 0 Z " fill="#C18D87" transform="translate(107,80)"/>
<path d="M0 0 C2.97 0.49 2.97 0.49 6 1 C6.33 2.32 6.66 3.64 7 5 C5.35 4.67 3.7 4.34 2 4 C2 3.34 2 2.68 2 2 C1.34 1.34 0.68 0.68 0 0 Z " fill="#745249" transform="translate(71,56)"/>
<path d="M0 0 C1.98 0.99 1.98 0.99 4 2 C3.67 4.31 3.34 6.62 3 9 C2.01 9.33 1.02 9.66 0 10 C0.29 7.98 0.59 5.96 0.88 3.95 C1.17 1.92 1.17 1.92 0 0 Z " fill="#60595C" transform="translate(106,70)"/>
<path d="M0 0 C0 2.84 -0.4 5.24 -1 8 C-1.99 8 -2.98 8 -4 8 C-3.5 4.31 -2.9 2.4 0 0 Z " fill="#77453C" transform="translate(60,59)"/>
</svg>
