<?xml version="1.0" encoding="UTF-8"?>
<!-- Generator: https://ezgif.com/png-to-svg -->
<svg version="1.1" xmlns="http://www.w3.org/2000/svg" width="322" height="367">
<path d="M0 0 C0.86 0.49 1.71 0.98 2.6 1.48 C5.39 3.07 8.16 4.69 10.94 6.31 C12.82 7.41 14.71 8.5 16.59 9.59 C20.58 11.91 24.55 14.24 28.53 16.57 C35.3 20.54 42.12 24.43 48.94 28.31 C58.66 33.85 68.35 39.45 78 45.1 C85.26 49.34 92.53 53.55 99.81 57.75 C100.88 58.37 101.94 58.98 103.04 59.62 C108.12 62.56 113.21 65.47 118.33 68.33 C120.13 69.34 121.93 70.35 123.72 71.36 C125.97 72.63 128.23 73.88 130.49 75.13 C137.21 78.93 143.37 82.62 145.94 90.31 C146.04 92.64 146.08 94.98 146.08 97.31 C146.09 98.02 146.09 98.74 146.1 99.48 C146.11 101.89 146.11 104.29 146.11 106.7 C146.12 108.42 146.13 110.14 146.13 111.87 C146.16 117.53 146.17 123.2 146.18 128.86 C146.18 130.81 146.18 132.76 146.19 134.71 C146.21 143.87 146.22 153.03 146.23 162.19 C146.24 172.76 146.27 183.33 146.31 193.91 C146.34 202.08 146.35 210.25 146.35 218.43 C146.36 223.31 146.37 228.19 146.39 233.07 C146.41 237.66 146.42 242.26 146.41 246.85 C146.41 248.53 146.41 250.22 146.43 251.9 C146.45 254.2 146.44 256.51 146.43 258.81 C146.43 260.1 146.43 261.38 146.43 262.71 C145.74 267.75 143.85 271.59 140 275.06 C139.32 275.48 138.64 275.89 137.93 276.32 C136.75 277.05 136.75 277.05 135.54 277.79 C134.68 278.29 133.82 278.8 132.94 279.31 C132.03 279.85 131.13 280.39 130.19 280.94 C127.14 282.74 124.07 284.5 121 286.25 C119.27 287.24 117.54 288.23 115.81 289.23 C114.03 290.25 112.24 291.27 110.46 292.29 C104.95 295.45 99.44 298.63 93.94 301.81 C91.77 303.06 89.6 304.31 87.44 305.56 C86.37 306.18 85.29 306.8 84.19 307.44 C48.44 328.06 48.44 328.06 45.18 329.94 C43.03 331.18 40.87 332.43 38.72 333.67 C33.71 336.56 28.71 339.44 23.7 342.33 C21.95 343.34 20.2 344.35 18.45 345.36 C16.27 346.61 14.09 347.87 11.91 349.13 C10.91 349.7 9.91 350.28 8.88 350.88 C7.9 351.43 6.91 351.99 5.9 352.57 C3.88 353.76 1.89 355.01 -0.06 356.3 C-6.04 360.17 -10.77 362.46 -17.99 361.98 C-24.02 360.67 -29.01 357.6 -34.25 354.44 C-35.45 353.74 -36.65 353.04 -37.85 352.35 C-40.22 350.98 -42.57 349.59 -44.92 348.19 C-47.49 346.65 -50.08 345.13 -52.68 343.62 C-55.33 342.07 -57.97 340.52 -60.6 338.95 C-66.2 335.62 -71.85 332.38 -77.5 329.12 C-78.61 328.49 -79.71 327.85 -80.86 327.19 C-83.13 325.88 -85.4 324.58 -87.67 323.27 C-93.13 320.12 -98.6 316.97 -104.06 313.81 C-106.23 312.56 -108.4 311.31 -110.56 310.06 C-114.9 307.56 -119.23 305.06 -123.56 302.56 C-125.17 301.63 -125.17 301.63 -126.82 300.69 C-128.97 299.44 -131.12 298.2 -133.27 296.96 C-138.31 294.04 -143.36 291.13 -148.45 288.3 C-150.25 287.29 -152.04 286.28 -153.84 285.27 C-156.09 284 -158.35 282.74 -160.61 281.5 C-167.15 277.8 -172.6 274.24 -176.06 267.31 C-176.17 265 -176.2 262.68 -176.21 260.36 C-176.21 259.64 -176.22 258.91 -176.22 258.17 C-176.23 255.73 -176.24 253.29 -176.24 250.86 C-176.25 249.11 -176.25 247.37 -176.26 245.63 C-176.28 240.88 -176.29 236.14 -176.3 231.4 C-176.3 228.43 -176.31 225.47 -176.31 222.51 C-176.33 213.24 -176.35 203.97 -176.35 194.7 C-176.36 183.99 -176.39 173.29 -176.43 162.59 C-176.46 154.32 -176.48 146.05 -176.48 137.78 C-176.48 132.84 -176.49 127.9 -176.52 122.96 C-176.54 118.31 -176.54 113.66 -176.53 109.01 C-176.53 107.3 -176.54 105.6 -176.55 103.89 C-176.57 101.56 -176.56 99.23 -176.55 96.9 C-176.55 95.59 -176.56 94.29 -176.56 92.95 C-175.81 87.42 -173.76 83.64 -169.29 80.14 C-168.25 79.55 -167.21 78.96 -166.14 78.35 C-165.57 78.02 -165 77.69 -164.41 77.35 C-162.64 76.32 -160.85 75.32 -159.06 74.31 C-157.45 73.38 -157.45 73.38 -155.8 72.42 C-152.5 70.51 -149.19 68.63 -145.88 66.75 C-143.41 65.35 -140.94 63.94 -138.47 62.54 C-137.54 62.01 -137.54 62.01 -136.59 61.47 C-130.32 57.89 -124.06 54.3 -117.81 50.69 C-116.74 50.07 -115.67 49.45 -114.57 48.82 C-107.43 44.69 -100.31 40.54 -93.19 36.38 C-83.92 30.96 -74.62 25.62 -65.29 20.3 C-54.83 14.34 -44.41 8.29 -34.01 2.2 C-33.16 1.7 -32.3 1.21 -31.42 0.69 C-29.94 -0.17 -28.46 -1.05 -26.99 -1.93 C-17.16 -7.73 -9.43 -5.55 0 0 Z M-25.12 60.38 C-26.13 60.91 -26.13 60.91 -27.15 61.45 C-29.47 62.71 -31.77 64 -34.06 65.31 C-34.94 65.81 -35.81 66.31 -36.72 66.83 C-42.79 70.31 -48.82 73.86 -54.85 77.42 C-60.19 80.56 -65.57 83.66 -70.94 86.75 C-72.54 87.67 -72.54 87.67 -74.17 88.62 C-79.24 91.54 -84.32 94.46 -89.41 97.36 C-91.19 98.37 -92.97 99.39 -94.75 100.41 C-96.97 101.68 -99.2 102.95 -101.44 104.21 C-114.16 110.94 -114.16 110.94 -122.06 122.31 C-122.16 123.82 -122.2 125.33 -122.2 126.84 C-122.21 127.77 -122.21 128.7 -122.22 129.65 C-122.22 130.67 -122.22 131.68 -122.22 132.73 C-122.23 133.8 -122.23 134.88 -122.24 135.98 C-122.25 139.53 -122.26 143.09 -122.27 146.64 C-122.27 149.11 -122.28 151.58 -122.28 154.04 C-122.29 159.22 -122.3 164.4 -122.3 169.58 C-122.31 176.21 -122.33 182.84 -122.36 189.48 C-122.38 194.57 -122.38 199.67 -122.39 204.77 C-122.39 207.22 -122.4 209.66 -122.41 212.11 C-122.43 215.53 -122.43 218.95 -122.42 222.38 C-122.43 223.38 -122.44 224.39 -122.45 225.43 C-122.41 231.75 -121.94 237.16 -117.49 242.04 C-111.11 246.45 -104.39 250.27 -97.62 254.06 C-95.13 255.47 -92.63 256.88 -90.14 258.3 C-89.23 258.81 -89.23 258.81 -88.29 259.34 C-82.41 262.67 -76.58 266.1 -70.77 269.57 C-68.09 271.47 -68.09 271.47 -65.06 272.31 C-65.06 271.74 -65.06 271.17 -65.06 270.59 C-65 256.72 -64.92 242.84 -64.83 228.97 C-64.78 222.26 -64.74 215.55 -64.72 208.84 C-64.69 202.37 -64.65 195.89 -64.6 189.41 C-64.58 186.94 -64.57 184.47 -64.56 182.01 C-64.56 178.54 -64.53 175.08 -64.49 171.62 C-64.5 170.6 -64.5 169.59 -64.5 168.54 C-64.38 159.41 -62.61 151.95 -56.24 145.22 C-52.01 141.52 -47.16 138.93 -42.25 136.25 C-40.5 135.27 -38.76 134.29 -37.01 133.31 C-35.22 132.3 -33.41 131.3 -31.61 130.3 C-26.1 127.22 -20.65 124.04 -15.19 120.88 C-8.38 116.94 -1.56 113.02 5.27 109.13 C6.19 108.61 6.19 108.61 7.12 108.07 C8.35 107.37 9.58 106.67 10.81 105.97 C11.41 105.63 12.01 105.29 12.62 104.94 C13.22 104.6 13.81 104.26 14.42 103.91 C23.33 98.83 32.19 93.67 40.94 88.31 C38.39 85.44 35.52 83.78 32.19 81.91 C31.62 81.58 31.06 81.26 30.47 80.93 C28.63 79.89 26.78 78.85 24.94 77.81 C22.39 76.38 19.84 74.94 17.29 73.5 C16.35 72.96 16.35 72.96 15.38 72.42 C11.61 70.28 7.88 68.1 4.18 65.85 C3.33 65.34 2.49 64.83 1.62 64.31 C0.09 63.39 -1.43 62.45 -2.94 61.5 C-10.54 56.93 -17.18 55.89 -25.12 60.38 Z M83.97 126.07 C82.94 126.67 81.9 127.27 80.84 127.88 C79.16 128.87 79.16 128.87 77.44 129.88 C76.26 130.56 75.09 131.24 73.91 131.93 C71.46 133.35 69.02 134.77 66.57 136.2 C61.04 139.42 55.49 142.61 49.94 145.81 C47.78 147.06 45.62 148.3 43.46 149.55 C41.85 150.48 41.85 150.48 40.21 151.42 C36.89 153.34 33.58 155.25 30.26 157.17 C29.15 157.81 28.04 158.45 26.89 159.11 C24.83 160.3 22.77 161.5 20.71 162.69 C10.47 168.6 0.2 174.45 -10.06 180.31 C-10.06 218.92 -10.06 257.53 -10.06 297.31 C-5.78 295.88 -2.87 294.8 0.86 292.58 C1.79 292.03 2.72 291.49 3.68 290.92 C4.67 290.33 5.66 289.74 6.69 289.12 C8.85 287.85 11.02 286.57 13.18 285.3 C14.85 284.31 14.85 284.31 16.56 283.3 C21.96 280.12 27.39 277 32.81 273.88 C33.88 273.26 34.95 272.64 36.06 272 C41.65 268.78 47.24 265.56 52.83 262.35 C57.25 259.8 61.67 257.25 66.08 254.7 C69.63 252.64 73.18 250.61 76.76 248.62 C78.11 247.85 79.46 247.08 80.81 246.31 C81.92 245.69 83.03 245.07 84.18 244.44 C88.22 241.33 90.55 237.93 91.3 232.89 C91.43 230 91.43 227.13 91.39 224.24 C91.39 223.14 91.39 222.05 91.39 220.92 C91.39 217.32 91.36 213.73 91.33 210.13 C91.32 207.63 91.31 205.13 91.31 202.63 C91.3 196.73 91.27 190.83 91.23 184.93 C91.18 177.54 91.15 170.16 91.13 162.78 C91.09 149.63 91.02 136.47 90.94 123.31 C88.06 123.31 86.45 124.62 83.97 126.07 Z " fill="#187CE1" transform="translate(176.0625,5.6875)"/>
<path d="M0 0 C7.01 4.78 11.28 10.65 13 19 C13.99 28.29 11.69 35.94 5.94 43.31 C0.58 48.95 -6.34 52.21 -14.12 52.5 C-23.29 51.93 -29.79 48.78 -36 42 C-41.39 35.16 -43.77 27.77 -43 19 C-41.59 11.39 -37.66 6.16 -32 1 C-21.79 -5.72 -10.58 -5.86 0 0 Z " fill="#002F8E" transform="translate(154,147)"/>
</svg>
