<?xml version="1.0" encoding="UTF-8"?>
<!-- Generator: https://ezgif.com/png-to-svg -->
<svg version="1.1" xmlns="http://www.w3.org/2000/svg" width="64" height="64">
<path d="M0 0 C4.54 -0.02 9.08 -0.04 13.62 -0.05 C15.16 -0.06 16.71 -0.07 18.25 -0.08 C20.47 -0.09 22.69 -0.09 24.9 -0.1 C25.6 -0.1 26.29 -0.11 27.01 -0.11 C28.67 -0.11 30.34 -0.06 32 0 C33 1 33 1 33.1 4.6 C33.09 6.09 33.08 7.57 33.06 9.06 C33.06 9.82 33.05 10.58 33.05 11.36 C33.04 13.24 33.02 15.12 33 17 C30.18 18.41 27.83 18.11 24.68 18.1 C23.42 18.09 22.17 18.09 20.87 18.09 C19.55 18.08 18.23 18.07 16.88 18.06 C15.54 18.06 14.2 18.05 12.86 18.05 C9.57 18.04 6.29 18.02 3 18 C3.01 18.85 3.02 19.71 3.04 20.59 C3.04 21.69 3.05 22.8 3.06 23.94 C3.07 25.04 3.09 26.14 3.1 27.28 C3 30 3 30 2 31 C-0.45 31.09 -2.87 31.12 -5.32 31.1 C-6.05 31.1 -6.78 31.09 -7.53 31.09 C-9.88 31.09 -12.22 31.08 -14.56 31.06 C-16.15 31.06 -17.73 31.05 -19.32 31.05 C-23.21 31.04 -27.11 31.02 -31 31 C-31.03 28.35 -31.05 25.71 -31.06 23.06 C-31.07 22.31 -31.08 21.55 -31.09 20.78 C-31.1 18.85 -31.05 16.92 -31 15 C-29.17 13.17 -26.24 13.76 -23.78 13.68 C-22.52 13.64 -21.26 13.6 -19.96 13.56 C-18.62 13.52 -17.28 13.48 -15.94 13.44 C-14.59 13.39 -13.25 13.35 -11.9 13.31 C-8.6 13.2 -5.3 13.1 -2 13 C-1.91 11.84 -1.91 11.84 -1.82 10.66 C-1.73 9.66 -1.65 8.66 -1.56 7.62 C-1.48 6.63 -1.4 5.63 -1.32 4.6 C-1 2 -1 2 0 0 Z " fill="#6E29F6" transform="translate(31,17)"/>
</svg>
