<?xml version="1.0" encoding="UTF-8"?>
<!-- Generator: https://ezgif.com/png-to-svg -->
<svg version="1.1" xmlns="http://www.w3.org/2000/svg" width="32" height="32">
<path d="M0 0 C4 0.54 5.85 2.48 8.62 5.31 C9.4 6.09 10.18 6.87 10.98 7.68 C14.7 11.95 15.45 15.18 15.32 20.75 C14.71 25.04 12.33 27.78 9.23 30.63 C4.91 33.28 -0.13 32.7 -5 32 C-9 30.08 -11.31 27.05 -13 23 C-13.71 18.45 -13.48 14.94 -11.38 10.81 C-8.71 7.65 -6.05 4.79 -3 2 C-2.34 2 -1.68 2 -1 2 C-0.91 2.58 -0.83 3.16 -0.74 3.76 C0.03 8 0.68 11.06 3.69 14.25 C6 17 6 17 6.12 19.75 C5 22 5 22 2.56 23.38 C-0 24 -0 24 -2 23 C-2.33 21.33 -2.67 19.67 -3 18 C-3.66 17.67 -4.32 17.34 -5 17 C-4.66 19.97 -4.66 19.97 -4 23 C-1.26 24.37 0.97 24.13 4 24 C4.66 23.67 5.32 23.34 6 23 C6.85 19.44 7.17 17.51 6 14 C4.35 12.64 2.69 11.31 1 10 C-0.61 6.79 -0.06 3.56 0 0 Z " fill="#3CC6F8" transform="translate(15,0)"/>
<path d="M0 0 C4 0.54 5.85 2.48 8.62 5.31 C9.4 6.09 10.18 6.87 10.98 7.68 C12.8 9.76 14.02 11.43 15 14 C14.62 16.25 14.62 16.25 14 18 C12.95 17.35 12.95 17.35 11.88 16.69 C9.01 14.94 9.01 14.94 5.88 13.56 C2.83 11.91 1.51 11.1 0 8 C-0.23 5.28 -0.14 2.74 0 0 Z " fill="#E90100" transform="translate(15,0)"/>
<path d="M0 0 C5.75 1.62 5.75 1.62 8 5 C7.68 8.83 7.16 10.77 5 14 C2.47 14.33 2.47 14.33 -0.5 14.25 C-1.97 14.23 -1.97 14.23 -3.47 14.2 C-6 14 -6 14 -8 13 C-8 12.34 -8 11.68 -8 11 C-5.69 10.34 -3.38 9.68 -1 9 C-0.67 6.03 -0.34 3.06 0 0 Z " fill="#1654D8" transform="translate(22,14)"/>
</svg>
